<?xml version="1.0" encoding="UTF-8"?>
<svg width="64px" height="50px" viewBox="0 0 64 50" version="1.1" xmlns="http://www.w3.org/2000/svg" xmlns:xlink="http://www.w3.org/1999/xlink">
    <!-- Generator: Sketch 57.1 (83088) - https://sketch.com -->
    <title>logo-gradient copy</title>
    <desc>Created with Sketch.</desc>
    <defs>
        <linearGradient x1="92.3411827%" y1="50%" x2="14.1830098%" y2="57.3264119%" id="linearGradient-1">
            <stop stop-color="#96FCFF" offset="0%"></stop>
            <stop stop-color="#220072" offset="100%"></stop>
        </linearGradient>
    </defs>
    <g id="CBIT" stroke="none" stroke-width="1" fill="none" fill-rule="evenodd">
        <path d="M39.0004016,51.0831271 L39,54.9997949 L39,55 L39.0006421,51.0830614 C39.9236777,50.8359003 40.8315141,50.5399209 41.7209612,50.1965565 L41.0006838,48.3307589 L39.0006838,48.3305538 L39.0004016,51.0831271 C39.0004818,51.0831076 39.0005619,51.0830861 39.0006421,51.0830646 L39.0009015,49.5000542 L37.0009016,49.4997264 L37.3988385,51.4597382 C37.9372856,51.3504184 38.4713402,51.2247923 39.0004016,51.083129 Z M47.0003895,47.4528403 L47,49.9996942 L47,50 L47.000798,47.4525668 C48.1888732,46.657341 49.3127513,45.7686761 50.3614363,44.7955444 L49.00102,43.3295064 L47.00102,43.3292005 L47.0003895,47.4528403 C47.0005257,47.4527491 47.0006619,47.452658 47.000798,47.4525668 L47.0011408,46.3583207 L45.0011409,46.3576942 L46.0427051,48.0650735 C46.3663035,47.8676666 46.6855998,47.6635332 47.0003895,47.4528403 Z M35.0009016,47.8062327 L35.0009016,2.1937698 C34.0121096,2.0650368 33.0104502,2 32,2 C19.2974508,2 9,12.2974508 9,25 C9,37.7025492 19.2974508,48 32,48 C33.0105504,48 34.0122251,47.9349495 35.0009016,47.8062327 Z M43.0011409,4.79622071 C43.154068,4.87968297 43.3060602,4.96489546 43.4570894,5.05184166 L43.9813511,5.36277923 L45.0011409,3.64230583 L43.0011409,3.64230583 L43.0011409,4.79622071 Z M43.0011409,45.20378 L43.0011409,46.3576942 L45.0011409,46.3576942 L43.9595768,44.6503149 C43.6444882,44.8425305 43.3249208,45.0270723 43.0011409,45.20378 Z M43.0006838,45.2040295 C42.1231014,45.6829573 41.2145744,46.1043327 40.2804065,46.4649613 L41.0006838,48.3307589 L43.0006838,48.3307589 L43.0006838,45.2040295 Z M43.0006838,4.79597124 L43.0006838,1.6692411 L41.0006838,1.6692411 L40.2804065,3.53503866 C41.214436,3.89561386 42.1229584,4.31696515 43.0006838,4.79597124 Z M51.0016461,12.0366691 C51.1106668,12.1961366 51.2177068,12.3570088 51.3227338,12.5192485 L51.0016461,11.4323937 L51.0016461,12.0366691 Z M51.0016461,37.9633309 L51.0016461,38.5676063 L51.3227338,37.4807515 C51.2177068,37.6429912 51.1106668,37.8038634 51.0016461,37.9633309 Z M51.00102,37.9642467 C50.0302789,39.3840296 48.9025257,40.6924624 47.6406037,41.8634683 L51.00102,43.3295064 L51.00102,37.9642467 Z M51.00102,12.0357533 L51.00102,6.67049364 L47.6406037,8.13653169 C48.9025257,9.3075376 50.0302789,10.6159704 51.00102,12.0357533 Z M55,39.1488589 L55,41 L55.0012545,39.1468237 C57.6000785,34.9302438 59,30.0665314 59,25 L55,25 L55,38.5745233 L54.6805585,39.6544611 C54.7889698,39.4869933 54.8954547,39.3184496 55,39.1488589 Z M47.0003895,2.54715973 L47.00102,6.67079946 L49.00102,6.67049364 L50.3614363,5.20445558 C49.3127513,4.23132393 48.1888732,3.34265904 47.0007981,2.54743322 L46.9999999,-0.000626495238 L47,0 L47.0003895,2.54715973 C46.6855998,2.33646679 46.3663035,2.13233342 46.0427051,1.93492651 L45.0011409,3.64230583 L47.0011408,3.64167934 L47.0007981,2.54743322 C47.0006619,2.54734205 47.0005257,2.54725089 47.0003895,2.54715973 Z M39.0004016,-1.08312902 L39.0006838,1.66944618 L41.0006838,1.6692411 L41.7209612,-0.196556452 C40.8315141,-0.53992093 39.9236777,-0.835900279 39.0006421,-1.08306464 L39,-5.00032783 L39,-5 L39.0004016,-1.08312902 C38.4713403,-1.2247923 37.9372856,-1.35041844 37.3988385,-1.45973819 L37.0009016,0.500273604 L39.0009015,0.499945777 L39.0006421,-1.08306464 C39.0005619,-1.0830861 39.0004818,-1.08310756 39.0004016,-1.08312902 Z M55,10.8511411 C54.8954547,10.6815504 54.7889698,10.5130067 54.6805585,10.3455389 L55,11.4254767 L55,25 L59,25 C59,19.9334687 57.6000785,15.0697563 55.0012546,10.8531765 L54.9999995,8.9986465 L55,9 L55,10.8511411 Z" id="logo-gradient-copy" stroke="url(#linearGradient-1)" stroke-width="4" transform="translate(32.000000, 25.000000) rotate(-90.000000) translate(-32.000000, -25.000000) "></path>
    </g>
</svg>